<svg xmlns="http://www.w3.org/2000/svg" viewBox="0 0 239.77 254">
  <g data-name="Favicon">
    <path fill="#BF0404" d="M135.3 185.3c36 36.37 104.47 15.86 104.47-40.49 0-64.65-85.21-76-117.62-143.24a2.69 2.69 0 0 0-4.82-.14C80.42 68.31 0 80.13 0 144.81c0 56.64 69.7 77.62 105.25 40.19a2.72 2.72 0 0 1 4.53 2.75c-8.6 27.4-29.34 49.4-57.72 50.8a2.69 2.69 0 0 0-2.62 2.66v11.2a2.73 2.73 0 0 0 2.73 2.73h138.26a2.72 2.72 0 0 0 2.72-2.73v-11.2a2.69 2.69 0 0 0-2.63-2.67c-29.45-1.25-50.52-23.45-59.71-50.54a2.69 2.69 0 0 1 4.49-2.7Z" data-name="Layer 1"/>
  </g>
</svg>
